<?xml version="1.0" encoding="utf-8"?>
<!-- Generator: Adobe Illustrator 17.1.0, SVG Export Plug-In . SVG Version: 6.00 Build 0)  -->
<!DOCTYPE svg PUBLIC "-//W3C//DTD SVG 1.1//EN" "http://www.w3.org/Graphics/SVG/1.1/DTD/svg11.dtd">
<svg version="1.1" id="graph-12" xmlns="http://www.w3.org/2000/svg"
	xmlns:xlink="http://www.w3.org/1999/xlink" x="0px" y="0px"
	viewBox="0 0 1010 942.8476" enable-background="new 0 0 1010 942.8476" xml:space="preserve">
<g id="graph-12-graph-12">
	<rect y="389.271" fill="#eceef4" width="158.2031" height="553.5766"/>
	<rect x="567.8984" y="389.271" fill="#eceef4" width="158.1416" height="553.5766"/>
	<rect x="851.8174" y="264.9936" fill="#eceef4" width="158.1826" height="677.854"/>
	<rect x="283.96" y="566.2754" fill="#eceef4" width="158.1411" height="376.5722"/>
	<path fill="#eceef4" d="M79.0708,231.2529c13.644,0,24.7197-11.0552,24.7197-24.6992c0-13.603-11.0757-24.6582-24.7197-24.6582
		c-13.624,0-24.6582,11.0552-24.6582,24.6582C54.4126,220.1977,65.4468,231.2529,79.0708,231.2529z"/>
	<path fill="#eceef4" d="M79.0708,285.6245c43.6245,0,79.1323-35.4258,79.1323-79.0708c0-43.604-35.5078-79.0708-79.1323-79.0708
		C35.4873,127.4829,0,162.9497,0,206.5537C0,250.1987,35.4873,285.6245,79.0708,285.6245z M79.0708,160.4018
		c25.4595,0,46.1929,20.7129,46.1929,46.1519c0,25.48-20.7334,46.1929-46.1929,46.1929c-25.46,0-46.1313-20.7129-46.1313-46.1929
		C32.9395,181.1147,53.6108,160.4018,79.0708,160.4018z"/>
	<path fill="#eceef4" d="M363.0303,398.8051c-13.6031,0-24.6582,11.0552-24.6582,24.6583c0,13.6445,11.0551,24.6997,24.6582,24.6997
		c13.603,0,24.6992-11.0552,24.6992-24.6997C387.7295,409.8603,376.6333,398.8051,363.0303,398.8051z"/>
	<path fill="#eceef4" d="M363.0303,344.352c-43.6245,0-79.0703,35.4663-79.0703,79.1114c0,43.604,35.4458,79.0708,79.0703,79.0708
		c43.604,0,79.0708-35.4668,79.0708-79.0708C442.1011,379.8183,406.6343,344.352,363.0303,344.352z M363.0303,469.6152
		c-25.439,0-46.1519-20.6719-46.1519-46.1518c0-25.439,20.7129-46.1519,46.1519-46.1519c25.4184,0,46.1518,20.7129,46.1518,46.1519
		C409.1821,448.9433,388.4487,469.6152,363.0303,469.6152z"/>
	<path fill="#eceef4" d="M646.9697,123.291c-13.624,0-24.6992,11.0552-24.6992,24.6992c0,13.6445,11.0752,24.6997,24.6992,24.6997
		c13.6436,0,24.6787-11.0552,24.6787-24.6997C671.6484,134.3462,660.6133,123.291,646.9697,123.291z"/>
	<path fill="#eceef4" d="M646.9697,68.9199c-43.624,0-79.0713,35.4668-79.0713,79.0293c0,43.645,35.4473,79.1118,79.0713,79.1118
		c43.583,0,79.0703-35.4668,79.0703-79.1118C726.04,104.3867,690.5527,68.9199,646.9697,68.9199z M646.9697,194.1425
		c-25.4599,0-46.1728-20.7128-46.1728-46.1933c0-25.439,20.7129-46.1108,46.1728-46.1108c25.4385,0,46.1924,20.6718,46.1924,46.1108
		C693.1621,173.4297,672.4082,194.1425,646.9697,194.1425z"/>
	<path fill="#eceef4" d="M160.2783,246.0068c-6.7397,13.8086-16.8291,25.6445-29.2817,34.4395L277.1787,395.312
		c4.8906-14.7539,13.4595-27.8228,24.6377-38.1377L160.2783,246.0068z"/>
	<path fill="#eceef4" d="M572.0293,198.4165L414.8125,349.4887c12.4937,8.795,22.624,20.6309,29.3638,34.4395l161.7993-155.5107
		C592.29,221.4306,580.5566,211.0742,572.0293,198.4165z"/>
	<path fill="#eceef4" d="M903.8047,94.77l15.0625,48.0835L1008.623,36.33L874.1543,0l16.1299,51.6181l-163.792,53.4668
		c6.9453,12.7813,10.8906,27.3706,10.8906,42.8643c0,0.4111-0.0615,0.8223-0.0615,1.1919L903.8047,94.77z"/>
</g>
</svg>